<?xml version="1.0" standalone="no"?>
<!DOCTYPE svg PUBLIC "-//W3C//DTD SVG 20010904//EN"
 "http://www.w3.org/TR/2001/REC-SVG-20010904/DTD/svg10.dtd">
<svg version="1.0" xmlns="http://www.w3.org/2000/svg"
 width="720.000000pt" height="720.000000pt" viewBox="0 0 720.000000 720.000000"
 preserveAspectRatio="xMidYMid meet">

<g transform="translate(0.000000,720.000000) scale(0.100000,-0.100000)"
fill="#000000" stroke="none">
<path d="M5175 7173 c-103 -55 -189 -173 -239 -330 -55 -177 -52 -382 8 -468
42 -61 67 -75 133 -75 110 1 219 96 298 260 52 106 68 190 63 327 -7 167 -41
253 -114 288 -41 19 -111 19 -149 -2z m81 -219 c35 -9 47 -67 42 -191 -6 -114
-19 -161 -65 -222 -25 -32 -76 -61 -108 -61 -9 0 -30 13 -46 29 -27 27 -29 35
-29 103 0 167 72 325 154 341 11 2 23 5 26 6 3 0 15 -2 26 -5z"/>
<path d="M2616 6908 c-27 -95 -82 -274 -122 -397 -41 -123 -73 -225 -72 -226
9 -7 189 12 196 20 8 8 66 205 88 298 7 31 19 33 108 16 69 -12 82 -5 91 53 9
50 -1 58 -75 58 -84 0 -85 2 -50 114 16 54 30 101 30 104 0 3 28 1 63 -3 128
-16 127 -17 149 43 11 29 17 56 14 59 -6 6 -120 18 -271 28 l-100 7 -49 -174z"/>
<path d="M4522 7061 c-46 -10 -88 -23 -94 -29 -6 -6 -12 -35 -14 -64 -3 -44
-19 -249 -51 -687 l-6 -74 49 6 c132 15 226 76 338 218 33 42 87 169 102 237
41 194 -3 342 -115 391 -59 25 -98 25 -209 2z m158 -168 c20 -26 22 -36 17
-118 -7 -103 -44 -240 -87 -323 -38 -73 -56 -96 -69 -87 -15 9 -14 53 9 276
10 107 20 213 22 237 l2 42 42 0 c34 0 47 -5 64 -27z"/>
<path d="M4180 7035 c-36 -7 -97 -16 -137 -20 -55 -5 -73 -11 -77 -23 -2 -10
-16 -69 -31 -132 -14 -63 -37 -160 -52 -215 -14 -55 -34 -134 -44 -175 -10
-41 -30 -119 -44 -174 -14 -54 -25 -100 -23 -101 6 -5 162 25 170 33 4 4 15
39 25 77 10 39 24 75 32 81 7 5 32 10 55 10 l41 -1 3 -75 c2 -41 1 -85 -3 -97
-6 -24 7 -22 -295 -43 -190 -14 -271 -28 -355 -64 -41 -17 -95 -28 -169 -36
-120 -12 -215 -39 -246 -70 -65 -65 -77 -109 -101 -360 -13 -144 -23 -176 -82
-274 -106 -176 -122 -243 -87 -376 56 -221 93 -356 102 -375 5 -11 24 -27 41
-35 24 -11 28 -15 15 -18 -10 -2 -18 -6 -18 -9 0 -7 54 -60 62 -59 3 1 16 -12
28 -27 14 -17 28 -26 37 -23 9 4 17 -1 20 -14 4 -15 11 -19 24 -15 14 5 19 1
19 -12 0 -10 23 -41 50 -68 81 -79 97 -127 99 -293 1 -29 5 -51 10 -48 4 3 13
-12 20 -33 15 -51 13 -62 -4 -31 -8 15 -14 19 -14 10 -1 -24 12 -36 52 -49 43
-14 82 -8 115 19 25 21 30 42 7 34 -8 -4 -15 -1 -15 5 0 6 4 11 9 11 5 0 17
21 27 48 16 45 57 109 77 123 5 4 7 11 3 17 -7 12 19 42 36 42 6 0 1 -9 -12
-20 -13 -11 -19 -20 -14 -20 5 0 21 12 36 25 44 38 27 64 -89 131 -54 31 -136
82 -183 112 -47 30 -90 55 -97 55 -7 0 -10 4 -7 8 2 5 -8 15 -23 23 -87 45
-172 181 -224 361 -33 110 -33 249 -1 317 12 26 22 51 22 57 0 19 155 172 229
227 40 30 91 59 113 65 37 10 41 9 69 -20 16 -17 34 -51 41 -76 8 -30 18 -45
29 -45 78 0 289 79 289 109 0 9 -7 35 -15 58 -17 50 -7 93 23 93 49 0 72 -70
72 -219 -1 -128 -10 -158 -65 -203 -64 -53 -250 -128 -317 -128 -18 0 -60 14
-93 30 -32 16 -63 26 -67 24 -17 -10 -7 -61 15 -81 22 -21 111 -55 177 -68 19
-4 41 -11 50 -16 8 -4 56 -24 105 -44 50 -21 106 -45 125 -55 20 -10 49 -20
66 -24 l30 -7 2 123 c3 130 7 143 57 153 11 2 62 13 114 25 71 17 141 24 276
28 100 2 194 2 209 -2 24 -6 26 -10 26 -64 0 -76 -18 -227 -32 -275 -9 -28
-40 -66 -116 -140 -57 -56 -110 -113 -117 -128 -9 -17 -17 -109 -26 -285 -16
-359 -16 -410 -1 -426 8 -8 40 -13 88 -13 111 0 107 -10 124 341 9 199 9 203
41 260 17 33 42 70 55 84 98 104 156 195 181 284 15 53 42 532 43 759 0 150
-11 174 -152 318 -110 113 -147 136 -258 165 -73 18 -151 55 -193 90 -16 13
-35 24 -43 24 -8 0 -14 4 -14 8 0 9 101 32 138 32 l22 0 0 373 c0 204 3 389 6
410 8 43 8 43 -96 22z m-65 -322 c-4 -109 -12 -204 -17 -210 -9 -12 -65 -10
-77 3 -2 2 1 32 8 67 6 34 16 89 21 122 23 141 46 214 69 215 2 0 0 -89 -4
-197z m-71 -754 c33 -12 66 -33 82 -52 l27 -32 -6 -262 c-4 -230 -7 -265 -23
-293 -28 -47 -72 -70 -136 -70 -82 0 -84 4 -92 205 -3 94 -13 217 -21 275 -27
184 -30 231 -14 241 26 16 126 10 183 -12z m-326 -10 c35 -12 50 -44 59 -131
5 -54 5 -57 -23 -71 -16 -8 -63 -20 -104 -26 -146 -21 -140 -21 -162 13 -16
25 -18 44 -15 100 4 62 8 73 33 93 16 12 37 24 49 26 42 9 133 7 163 -4z m680
-43 c34 -18 85 -72 105 -111 25 -51 38 -135 44 -280 5 -113 3 -142 -8 -151
-19 -16 -132 -34 -208 -34 l-63 0 4 253 c3 267 4 272 53 321 20 20 38 20 73 2z
m-987 -52 c7 -9 15 -47 17 -84 7 -123 -35 -172 -163 -192 -69 -11 -80 -10
-110 6 -29 16 -35 26 -41 65 -11 71 -10 179 1 190 15 15 107 28 201 30 64 1
84 -2 95 -15z m176 -1640 c-3 -3 -12 -4 -19 -1 -8 3 -5 6 6 6 11 1 17 -2 13
-5z"/>
<path d="M3093 6993 c-8 -21 -28 -74 -45 -118 -16 -44 -40 -107 -53 -140 -13
-33 -40 -103 -60 -155 -19 -52 -40 -104 -45 -115 -5 -11 -20 -51 -35 -90 -14
-38 -30 -80 -35 -93 -17 -40 -13 -43 63 -41 106 3 110 6 137 93 l24 76 52 0
c60 0 69 -12 55 -69 -5 -20 -12 -58 -15 -85 -6 -46 -5 -48 17 -42 12 3 52 6
89 6 79 0 68 -30 103 270 35 301 55 449 65 490 6 19 10 38 10 43 0 4 -70 7
-156 7 l-155 0 -16 -37z m147 -107 c0 -13 -11 -83 -25 -156 -14 -73 -25 -147
-25 -165 0 -41 -19 -57 -62 -53 -44 4 -42 15 20 198 27 80 52 157 56 173 8 34
36 37 36 3z"/>
<path d="M3474 7001 c-2 -2 -4 -33 -4 -68 l0 -63 49 0 c29 0 51 -5 53 -12 7
-21 -21 -179 -75 -421 -29 -130 -52 -239 -51 -240 8 -8 170 16 180 26 6 7 28
102 48 212 81 442 70 408 134 418 54 9 62 19 76 97 2 14 7 32 10 40 5 13 -21
15 -205 15 -116 0 -212 -2 -215 -4z"/>
<path d="M3516 3868 c5 -7 3 -8 -5 -4 -17 11 -130 -26 -136 -44 -2 -8 -9 -67
-15 -130 -12 -130 -15 -153 -29 -265 -10 -83 -36 -323 -36 -340 0 -5 -4 -13
-10 -17 -19 -14 4 -20 37 -9 18 5 54 15 79 21 46 12 47 13 48 53 0 23 4 58 7
77 3 19 8 60 12 90 l7 54 43 9 c23 4 42 12 42 18 0 5 9 9 21 9 15 0 19 5 15
16 -3 8 -2 13 2 10 4 -2 16 2 27 10 10 8 16 14 12 14 -4 0 1 8 11 18 9 11 20
17 23 15 11 -5 19 25 13 45 -5 13 -4 14 4 3 16 -22 42 50 49 133 5 55 4 68 -7
61 -10 -6 -11 -2 -6 19 9 36 -26 101 -67 126 -37 23 -154 29 -141 8z m-19 -24
c-3 -3 -12 -4 -19 -1 -8 3 -5 6 6 6 11 1 17 -2 13 -5z m163 -17 c-14 -8 -27
-12 -30 -10 -7 6 23 23 40 23 8 0 4 -6 -10 -13z m-263 -39 c-3 -7 -5 -2 -5 12
0 14 2 19 5 13 2 -7 2 -19 0 -25z m153 3 c0 -5 -6 -11 -12 -14 -24 -8 1 -20
42 -20 22 0 40 -4 40 -9 0 -6 -6 -8 -14 -5 -12 5 -13 -8 -9 -71 4 -64 1 -85
-17 -127 -20 -48 -65 -105 -82 -105 -4 0 -6 45 -5 100 1 56 5 91 9 78 5 -18 6
-15 7 14 1 20 -4 38 -10 40 -8 3 -6 10 5 20 9 9 16 30 16 46 0 17 3 37 6 46 7
17 24 22 24 7z m147 -73 c-3 -8 -6 -5 -6 6 -1 11 2 17 5 13 3 -3 4 -12 1 -19z
m10 -50 c-3 -8 -6 -5 -6 6 -1 11 2 17 5 13 3 -3 4 -12 1 -19z"/>
<path d="M3956 3841 l-50 -6 -23 -95 c-22 -94 -99 -401 -133 -535 -10 -38 -23
-82 -29 -97 l-11 -28 79 0 c90 0 86 -5 116 125 9 39 41 171 72 295 53 215 64
260 79 323 7 30 5 31 -100 18z m-199 -703 c-3 -8 -6 -5 -6 6 -1 11 2 17 5 13
3 -3 4 -12 1 -19z"/>
<path d="M4222 3804 c-5 -11 -19 -48 -30 -84 -19 -60 -49 -146 -131 -371 -17
-48 -48 -130 -70 -182 -38 -94 -38 -95 -17 -101 31 -8 99 -7 113 2 17 11 58
113 100 247 18 61 41 117 50 125 14 14 15 -1 9 -170 -3 -102 -9 -195 -12 -207
-6 -23 -5 -23 78 -23 86 0 108 8 108 41 0 19 165 461 224 599 20 46 36 88 36
93 0 4 -28 7 -62 5 l-61 -3 -17 -50 c-10 -27 -34 -93 -54 -145 -21 -52 -45
-116 -54 -143 -29 -85 -37 -52 -40 166 l-2 207 -43 0 c-23 0 -58 3 -79 6 -29
5 -38 3 -46 -12z"/>
<path d="M3025 3803 c-11 -2 -40 -13 -63 -24 -32 -14 -42 -24 -38 -36 5 -11 2
-14 -11 -9 -12 5 -32 -10 -73 -53 -59 -63 -80 -109 -80 -175 0 -35 13 -48 24
-23 3 6 3 0 0 -15 -10 -48 -4 -54 144 -128 101 -51 135 -81 135 -118 0 -72
-87 -109 -170 -72 -25 11 -47 20 -48 20 -7 0 -26 -82 -28 -120 -2 -37 1 -45
18 -48 11 -3 23 -9 26 -14 13 -21 96 -28 148 -12 57 16 148 84 161 119 5 12
14 25 19 26 6 2 16 29 23 60 14 68 -4 181 -28 172 -9 -3 -12 0 -9 9 3 8 -4 26
-15 41 -20 25 -110 80 -154 93 -27 8 -76 54 -76 71 0 8 7 30 17 51 9 20 15 44
14 52 -2 13 -1 13 9 0 9 -13 13 -12 30 9 11 13 22 22 24 20 1 -2 13 -22 26
-44 24 -38 24 -39 30 -15 l6 25 8 -22 c4 -13 12 -23 17 -23 6 0 28 10 49 23
34 18 40 27 40 55 0 17 -4 32 -8 32 -4 0 -13 13 -19 30 -16 43 -74 60 -148 43z
m-5 -23 c0 -5 -5 -10 -11 -10 -5 0 -7 5 -4 10 3 6 8 10 11 10 2 0 4 -4 4 -10z
m130 -4 c0 -2 -7 -7 -16 -10 -8 -3 -12 -2 -9 4 6 10 25 14 25 6z m7 -38 c-3
-8 -6 -5 -6 6 -1 11 2 17 5 13 3 -3 4 -12 1 -19z m-380 -230 c-3 -7 -5 -2 -5
12 0 14 2 19 5 13 2 -7 2 -19 0 -25z"/>
<path d="M2221 2886 l-74 -11 -13 -40 c-50 -161 -115 -397 -111 -401 3 -3 25
-2 49 3 41 8 44 11 59 58 9 28 21 50 27 49 7 -1 19 -2 27 -2 11 -2 15 -16 15
-58 l0 -56 38 7 c20 4 42 11 48 16 7 6 14 86 18 215 4 113 10 212 13 220 6 16
6 16 -96 0z m19 -64 c0 -31 -18 -182 -26 -220 -7 -34 -48 -26 -52 10 -3 24 41
209 55 231 10 17 23 5 23 -21z m-63 -34 c-3 -7 -5 -2 -5 12 0 14 2 19 5 13 2
-7 2 -19 0 -25z"/>
<path d="M2812 2888 c-5 -7 -12 -76 -16 -153 -3 -77 -9 -178 -12 -224 l-7 -84
62 7 c34 4 68 9 76 12 14 6 30 57 75 254 17 74 36 139 41 145 12 12 11 45 -2
45 -5 0 -8 -4 -5 -9 4 -5 3 -11 -1 -13 -5 -1 -19 -48 -32 -103 -27 -109 -40
-147 -37 -99 2 17 6 36 10 42 4 6 4 24 1 39 -4 19 -3 22 3 10 5 -12 8 10 9 58
1 55 -2 75 -10 72 -13 -4 -15 -13 -47 -192 -12 -66 -29 -131 -38 -145 l-17
-25 -3 25 c-3 14 4 91 13 172 10 80 15 153 12 162 -10 24 -37 19 -38 -6 l0
-23 -9 23 c-11 25 -14 27 -28 10z"/>
<path d="M3433 2888 c-6 -7 -13 -49 -17 -93 -4 -43 -17 -122 -28 -175 -11 -52
-23 -117 -25 -144 -5 -47 -4 -48 18 -41 51 15 60 35 66 146 3 57 7 106 9 108
6 6 31 -25 39 -48 4 -12 7 -54 6 -93 0 -40 4 -77 10 -84 12 -15 67 -8 86 11 6
7 28 93 49 191 48 233 48 234 36 234 -6 0 -8 -10 -6 -22 2 -13 2 -18 -2 -11
-3 7 -12 9 -20 6 -10 -4 -12 0 -8 11 3 9 3 16 0 16 -18 0 -36 -78 -38 -165 -1
-52 -6 -95 -10 -95 -23 0 -65 121 -73 210 -1 14 -3 31 -3 38 -1 7 -17 12 -41
12 -21 0 -43 -6 -48 -12z m71 -7 c3 -5 0 -11 -8 -14 -8 -3 -17 1 -20 9 -6 15
19 20 28 5z m166 -41 c0 -12 -30 -34 -37 -26 -3 3 -1 6 6 6 8 0 10 7 6 20 -5
15 -3 18 9 14 9 -3 16 -10 16 -14z m-259 -346 c6 -7 1 -18 -12 -30 -22 -19
-22 -19 -9 6 8 16 9 25 2 28 -5 1 -7 13 -4 25 6 21 6 21 10 2 2 -11 8 -25 13
-31z"/>
<path d="M4890 2887 c-41 -5 -78 -14 -82 -20 -3 -5 -9 -35 -13 -66 -3 -31 -17
-105 -30 -166 -13 -60 -26 -132 -30 -159 l-7 -48 44 5 c42 6 91 14 136 23 17
3 22 11 22 35 0 26 -3 30 -17 24 -10 -3 -30 -9 -45 -12 -27 -5 -28 -4 -27 33
3 86 9 97 64 109 34 7 51 16 53 28 3 14 -4 17 -38 17 -50 0 -55 11 -40 84 9
46 16 57 35 62 13 3 28 3 34 0 17 -11 51 17 51 41 0 26 3 25 -110 10z"/>
<path d="M2489 2883 c-25 -4 -27 -9 -39 -96 -7 -51 -20 -130 -30 -177 -10 -47
-21 -109 -25 -137 l-7 -53 34 6 c65 11 95 25 134 59 26 24 38 42 36 56 -3 16
0 20 15 15 29 -9 86 107 86 177 1 62 -18 124 -42 136 -21 12 -126 21 -162 14z
m113 -68 c23 -50 -31 -251 -80 -300 -41 -42 -47 -11 -18 99 13 52 28 116 32
142 6 43 28 81 47 83 4 1 13 -10 19 -24z m55 -87 c-3 -7 -5 -2 -5 12 0 14 2
19 5 13 2 -7 2 -19 0 -25z m-30 -100 c-13 -13 -27 -30 -31 -38 -3 -8 -4 -1 0
15 3 17 10 32 15 33 5 2 9 10 9 18 0 8 5 14 10 14 6 0 11 8 11 18 1 9 4 5 6
-10 3 -20 -3 -34 -20 -50z m-5 -60 c-8 -8 -9 -4 -5 13 4 13 8 18 11 10 2 -7
-1 -18 -6 -23z"/>
<path d="M3193 2883 c-60 -5 -53 10 -78 -153 -9 -58 -22 -132 -30 -165 -21
-92 -27 -135 -18 -135 24 0 167 31 184 41 32 17 16 34 -34 37 -46 3 -47 4 -47
35 0 18 5 48 10 68 10 34 12 36 51 35 25 0 43 5 49 14 12 20 2 28 -40 32 l-35
3 2 58 c2 62 14 87 43 87 11 0 20 10 22 25 4 19 1 25 -11 23 -9 -1 -40 -3 -68
-5z"/>
<path d="M3303 2883 c9 -2 23 -2 30 0 6 3 -1 5 -18 5 -16 0 -22 -2 -12 -5z"/>
<path d="M3888 2883 c-69 -3 -100 -8 -108 -18 -19 -23 -4 -45 31 -45 l32 0 -7
-42 c-18 -109 -37 -218 -48 -275 -12 -65 -9 -81 14 -67 7 5 25 7 39 6 28 -3
27 -7 71 258 15 91 24 110 57 121 16 6 31 20 35 31 5 22 0 39 -12 36 -4 -1
-50 -4 -104 -5z"/>
<path d="M4165 2868 c6 -21 5 -22 -8 -5 -8 9 -23 17 -34 17 -18 0 -23 -12 -37
-87 -9 -49 -23 -122 -31 -163 -17 -88 -19 -154 -5 -180 14 -27 88 -36 127 -17
68 35 96 99 133 296 11 58 22 117 25 133 4 17 2 28 -4 28 -6 0 -11 -7 -11 -15
0 -8 -5 -15 -11 -15 -6 0 -9 -9 -6 -20 3 -11 1 -22 -3 -25 -5 -3 -11 7 -13 22
-3 22 -4 20 -6 -10 0 -23 3 -36 9 -32 15 9 12 -26 -6 -60 -9 -17 -14 -43 -11
-60 2 -16 -1 -46 -9 -65 -11 -31 -13 -32 -14 -10 -1 23 -2 24 -11 5 -8 -17 -9
-17 -4 5 2 14 5 32 5 40 0 13 1 13 10 0 16 -25 20 -5 5 24 -8 16 -15 33 -14
40 0 6 4 2 9 -9 8 -18 9 -17 9 7 1 14 7 28 14 31 9 3 9 7 -1 20 -11 13 -12 27
-3 68 11 52 8 71 -8 53 -9 -9 -13 -30 -50 -234 -25 -134 -38 -170 -61 -170
-35 0 -36 31 -5 165 19 82 45 218 45 233 0 6 -7 12 -16 12 -11 0 -14 -6 -9
-22z m-59 -310 c4 -7 -3 -3 -15 9 -11 12 -21 30 -21 40 0 13 4 10 14 -9 8 -16
18 -34 22 -40z"/>
<path d="M4500 2880 l-55 -5 -8 -55 c-9 -67 -21 -132 -47 -270 -24 -127 -24
-120 -4 -120 9 0 14 6 11 13 -3 8 6 12 26 12 27 0 31 4 43 50 7 28 13 67 14
88 0 25 5 37 14 37 16 0 26 -21 26 -54 0 -12 7 -45 15 -72 14 -48 15 -49 51
-48 20 1 41 7 46 12 11 11 -5 55 -50 141 -22 42 -22 45 -5 54 71 39 124 158
93 207 -10 16 -75 20 -170 10z m128 -86 c4 -26 -34 -74 -59 -74 -10 0 -19 -4
-19 -10 0 -16 -40 -12 -46 5 -7 18 14 87 32 101 8 6 30 8 51 5 28 -5 39 -12
41 -27z m-161 -86 c-3 -7 -5 -2 -5 12 0 14 2 19 5 13 2 -7 2 -19 0 -25z"/>
<path d="M5192 2879 c-48 -19 -114 -75 -128 -108 -12 -29 -12 -37 0 -55 14
-21 51 -60 101 -105 19 -18 25 -32 23 -55 -3 -27 -7 -31 -35 -34 -17 -2 -46 4
-64 13 -36 19 -51 10 -51 -29 0 -14 -5 -26 -10 -26 -21 0 14 -29 48 -40 38
-13 42 -25 18 -58 -11 -16 -14 -34 -10 -57 5 -27 13 -36 41 -45 19 -6 44 -8
56 -5 18 6 59 59 59 77 0 5 -15 25 -34 46 l-35 38 31 13 c42 19 88 86 88 128
0 47 -25 96 -62 125 -17 12 -37 29 -45 37 -21 21 -12 64 17 78 22 11 27 9 50
-19 25 -30 27 -30 56 -17 24 12 29 20 27 48 0 18 -9 38 -20 46 -20 16 -86 18
-121 4z"/>
<path d="M3288 2863 c7 -3 16 -2 19 1 4 3 -2 6 -13 5 -11 0 -14 -3 -6 -6z"/>
<path d="M3435 2382 c-38 -19 -45 -30 -45 -68 0 -61 83 -92 122 -44 50 62 -8
148 -77 112z"/>
<path d="M2099 2361 c-51 -41 -17 -131 50 -131 38 1 61 23 68 64 11 69 -63
112 -118 67z"/>
<path d="M3239 1981 l-29 -30 19 -33 c13 -21 17 -38 12 -47 -13 -21 -38 -6
-45 26 -4 16 -16 44 -27 62 -20 33 -22 33 -72 28 -84 -10 -84 -10 -66 -207 9
-103 20 -175 28 -183 18 -18 139 -16 151 3 12 18 3 66 -17 97 -13 19 -13 24
-2 27 8 2 22 7 32 10 42 13 62 -21 31 -55 -14 -16 -14 -20 7 -48 19 -26 29
-31 65 -31 46 0 90 16 97 34 5 11 -19 262 -29 314 -13 66 -102 85 -155 33z"/>
<path d="M3538 1999 c-12 -8 -33 -306 -24 -342 10 -39 43 -50 176 -57 69 -4
130 -5 137 -3 16 6 25 66 14 96 -9 23 -16 26 -88 32 -90 7 -103 11 -103 24 0
6 38 11 88 13 83 3 87 4 90 27 5 34 -9 42 -78 47 -70 5 -80 9 -80 30 0 12 16
14 80 13 44 -2 85 2 89 7 5 5 12 25 15 44 11 62 -1 67 -162 72 -79 2 -148 0
-154 -3z"/>
<path d="M2697 1902 c-149 -40 -163 -50 -152 -103 10 -47 38 -70 72 -60 38 11
53 4 53 -23 0 -13 4 -36 9 -52 5 -16 17 -54 25 -86 13 -47 21 -58 46 -66 34
-12 87 -1 120 26 22 18 22 19 6 77 -8 33 -20 79 -26 103 -9 35 -17 46 -41 54
-40 14 -37 28 6 28 83 0 114 44 80 110 -20 38 -26 38 -198 -8z"/>
<path d="M4166 1896 c-26 -56 -21 -75 25 -94 45 -19 44 -11 15 -132 -24 -102
-21 -137 12 -154 41 -21 89 -29 108 -18 16 9 35 62 64 172 8 32 6 37 -23 64
-36 32 -38 31 66 5 59 -16 77 -2 84 63 5 42 3 45 -23 56 -35 14 -275 72 -296
72 -9 0 -23 -15 -32 -34z"/>
<path d="M4623 1793 c-26 -26 -117 -305 -108 -333 4 -11 16 -27 28 -35 30 -19
102 -34 118 -25 7 5 14 33 17 64 4 53 6 56 31 56 32 0 62 -19 43 -27 -27 -11
-42 -36 -42 -69 0 -51 14 -70 63 -83 85 -24 84 -25 145 158 42 123 53 167 45
180 -17 27 -74 61 -104 61 -34 0 -69 -41 -69 -81 0 -32 -16 -47 -33 -30 -8 8
-7 24 2 60 18 70 -5 102 -82 116 -27 5 -39 3 -54 -12z"/>
<path d="M2175 1729 c-107 -43 -220 -104 -223 -121 -2 -10 4 -33 13 -50 9 -18
23 -49 30 -68 7 -19 29 -72 50 -116 48 -104 62 -112 148 -79 119 44 207 88
207 101 0 8 -8 32 -17 55 -17 38 -20 40 -53 34 -19 -4 -51 -15 -72 -26 -38
-19 -78 -25 -78 -11 0 4 27 20 60 36 78 37 86 47 68 86 -12 28 -16 31 -48 25
-19 -3 -52 -14 -72 -24 -21 -10 -42 -15 -50 -10 -16 10 -18 8 70 49 78 37 83
45 58 105 -17 40 -23 41 -91 14z"/>
<path d="M5057 1622 c-9 -10 -17 -22 -17 -26 0 -5 -6 -22 -14 -39 -91 -203
-104 -241 -89 -263 14 -20 92 -54 123 -54 31 0 32 1 28 42 -2 34 0 43 15 46
14 3 17 -4 17 -38 0 -77 40 -121 115 -123 71 -2 102 82 45 125 -40 29 -38 38
8 38 41 0 59 14 80 63 19 44 14 79 -15 126 -22 33 -44 50 -98 76 -90 42 -174
54 -198 27z m153 -167 c0 -8 -9 -19 -20 -25 -28 -15 -41 17 -15 36 20 15 35
10 35 -11z"/>
<path d="M1779 1557 c-62 -29 -73 -58 -41 -112 58 -97 90 -228 41 -164 -10 13
-19 30 -19 37 0 15 -56 130 -73 150 -20 24 -96 7 -134 -30 -32 -31 -43 -58
-23 -58 6 0 10 -5 10 -11 0 -16 83 -120 155 -196 62 -65 64 -66 105 -60 52 7
129 53 150 89 13 25 12 39 -12 158 -15 72 -35 147 -45 168 -15 31 -23 37 -53
39 -19 1 -47 -4 -61 -10z"/>
<path d="M5480 1460 c0 -5 -11 -33 -24 -62 -13 -29 -40 -88 -60 -131 -38 -84
-51 -135 -39 -153 13 -18 90 -54 116 -54 30 0 40 11 65 75 11 28 37 86 57 130
63 134 63 142 -5 184 -35 21 -110 29 -110 11z"/>
<path d="M1373 1351 c-23 -11 -49 -31 -58 -44 -16 -24 -14 -29 61 -169 91
-168 98 -178 134 -178 28 0 107 51 116 74 3 7 -8 37 -24 67 -16 30 -51 95 -77
144 -70 136 -76 140 -152 106z"/>
<path d="M5712 1358 c-7 -7 -12 -15 -12 -20 0 -4 -26 -63 -59 -130 -76 -159
-77 -165 -54 -190 37 -41 239 -131 264 -117 9 4 24 29 34 54 16 43 16 47 1 64
-16 17 -103 51 -132 51 -23 0 -16 18 9 22 17 2 33 24 66 91 54 106 51 129 -19
165 -49 25 -80 28 -98 10z"/>
<path d="M6074 1202 c-14 -9 -144 -279 -151 -313 -4 -21 1 -31 27 -49 48 -34
206 -110 230 -110 13 0 26 13 40 40 32 62 27 83 -25 108 -25 12 -56 22 -68 22
-12 0 -29 4 -37 10 -15 9 -16 9 35 25 17 5 95 156 95 183 0 46 -109 109 -146
84z"/>
<path d="M1035 1166 c-16 -7 -41 -25 -54 -39 l-23 -26 73 -133 c40 -73 81
-145 91 -160 26 -37 61 -36 121 2 26 17 50 30 52 30 17 0 125 74 125 86 0 9
-12 35 -26 60 -36 62 -70 59 -146 -14 -21 -20 -41 -33 -45 -29 -4 4 -1 13 5
19 20 20 14 42 -28 114 -59 103 -83 117 -145 90z"/>
<path d="M0 180 l0 -180 3600 0 3600 0 0 180 0 180 -3600 0 -3600 0 0 -180z"/>
</g>
</svg>
